HIERARCHY
ROOT Hips
{
  OFFSET 279.157 85.6768 304.565
  CHANNELS 6 Xposition Yposition Zposition Zrotation Xrotation Yrotation
  JOINT LeftUpLeg
  {
    OFFSET 8.64259 1.95398 -2.38835
    CHANNELS 3 Zrotation Xrotation Yrotation
    JOINT LeftLeg
    {
      OFFSET 43.7702 0 0
      CHANNELS 3 Zrotation Xrotation Yrotation
      JOINT LeftFoot
      {
        OFFSET 40.6238 0 0
        CHANNELS 3 Zrotation Xrotation Yrotation
        JOINT LeftToeBase
        {
          OFFSET 12.7242 0 0
          CHANNELS 3 Zrotation Xrotation Yrotation
          End Site
          {
            OFFSET 0 0 0
          }
        }
      }
    }
  }
  JOINT RightUpLeg
  {
    OFFSET -8.2249 1.95398 -2.59336
    CHANNELS 3 Zrotation Xrotation Yrotation
    JOINT RightLeg
    {
      OFFSET 43.5653 0 0
      CHANNELS 3 Zrotation Xrotation Yrotation
      JOINT RightFoot
      {
        OFFSET 40.6238 0 0
        CHANNELS 3 Zrotation Xrotation Yrotation
        JOINT RightToeBase
        {
          OFFSET 12.7242 0 0
          CHANNELS 3 Zrotation Xrotation Yrotation
          End Site
          {
            OFFSET 0 0 0
          }
        }
      }
    }
  }
  JOINT Spine
  {
    OFFSET 0.165834 0.87714 6.61349
    CHANNELS 3 Zrotation Xrotation Yrotation
    JOINT Spine1
    {
      OFFSET 7.38963 1.71661e-005 0
      CHANNELS 3 Zrotation Xrotation Yrotation
      JOINT Spine2
      {
        OFFSET 11.9445 1.14441e-005 0
        CHANNELS 3 Zrotation Xrotation Yrotation
        JOINT Spine3
        {
          OFFSET 14.7254 4.19617e-005 0
          CHANNELS 3 Zrotation Xrotation Yrotation
          JOINT Spine4
          {
            OFFSET 10.9679 0 0
            CHANNELS 3 Zrotation Xrotation Yrotation
            JOINT RightShoulder
            {
              OFFSET 2.46616 -1.6653 3.69651
              CHANNELS 3 Zrotation Xrotation Yrotation
              JOINT RightArm
              {
                OFFSET 13.0012 0 0
                CHANNELS 3 Zrotation Xrotation Yrotation
                JOINT RightForeArm
                {
                  OFFSET 28.7848 1.52588e-005 0
                  CHANNELS 3 Zrotation Xrotation Yrotation
                  JOINT RightHand
                  {
                    OFFSET 26.5688 1.52588e-005 0
                    CHANNELS 3 Zrotation Xrotation Yrotation
                    End Site
                    {
                      OFFSET 0 0 0
                    }
                  }
                }
              }
            }
            JOINT LeftShoulder
            {
              OFFSET 2.38034 -1.29275 -3.7523
              CHANNELS 3 Zrotation Xrotation Yrotation
              JOINT LeftArm
              {
                OFFSET 16.3182 6.10351e-005 0
                CHANNELS 3 Zrotation Xrotation Yrotation
                JOINT LeftForeArm
                {
                  OFFSET 27.0901 0 0
                  CHANNELS 3 Zrotation Xrotation Yrotation
                  JOINT LeftHand
                  {
                    OFFSET 24.5451 1.52588e-005 0
                    CHANNELS 3 Zrotation Xrotation Yrotation
                    End Site
                    {
                      OFFSET 0 0 0
                    }
                  }
                }
              }
            }
            JOINT Neck
            {
              OFFSET 5.0226 -0.0266342 0
              CHANNELS 3 Zrotation Xrotation Yrotation
              JOINT Head
              {
                OFFSET 6.69364 2.86102e-005 0
                CHANNELS 3 Zrotation Xrotation Yrotation
                End Site
                {
                  OFFSET 0 0 0
                }
              }
            }
          }
        }
      }
    }
  }
}
MOTION
Frames:	10
Frame Time:	0.0416667
-299.282 90.0261 -280.009 -109.197 60.0751 -75.0529 -168.568 4.55033 97.3444 114.946 -67.7261 -168.701 -7.53182 -25.2767 -57.1617 -137.349 -30.4395 -56.3405 -167.243 30.2902 93.492 -61.9591 -26.1688 -10.2521 66.6927 -7.53082 -3.74266 25.8588 0.245881 4.85787 3.41989 12.82 -91.3603 1.27829 6.30874 -2.44843 -10.3802 6.19491 -2.72454 -33.0373 6.75172 -0.431172 -13.0247 6.75172 -0.431177 99.7822 15.299 -102.425 55.2101 40.9415 -5.10509 -37.4076 -22.1644 -86.7441 -27.5176 1.14355 -22.4998 -96.8432 -32.9163 61.9748 -45.541 -0.354287 -68.1743 63.3616 13.8506 -84.8911 -0.527517 -0.424201 -24.8718 30.6737 1.84431 22.8747 20.8566 -8.58194 -5.85259 
-295.029 91.1183 -275.737 -108.642 57.9608 -76.5596 -166.682 0.564599 96.5361 -82.2341 -74.2184 -7.32781 21.9096 -27.4382 -95.9097 -33.858 6.8389 -41.2666 -168.485 29.7601 91.8764 -53.6156 -27.5871 -9.56425 61.0616 -3.89328 -2.08225 24.13 0.636032 5.56932 2.26532 12.8775 -90.6562 1.13124 4.2723 -1.13248 -10.5334 4.21832 -1.31972 -33.1243 4.4147 0.206281 -13.1116 4.4147 0.206279 99.5437 11.4619 -99.1391 65.2876 33.0018 -3.90626 -40.8081 -21.5872 -91.3411 -27.0051 1.64978 -26.7493 -91.1014 -27.8935 70.4446 -43.7665 -5.20249 -76.4478 59.7304 5.99086 -89.7441 1.96755 -0.951822 -27.7006 38.0086 5.06739 18.2069 16.914 -4.94202 -7.902 
-290.483 92.0339 -270.167 -110.327 53.9808 -75.6572 -166.459 -1.32906 91.045 -68.1284 -4.6557 -0.662424 101.695 16.0209 -16.6821 16.52 -8.96897 -0.433332 -171.408 27.4604 90.8803 -43.1105 -29.7144 -8.99058 53.2503 1.75987 -0.0926174 20.3243 1.50439 6.80515 0.827761 12.9129 -89.8199 1.04307 1.71991 0.41027 -10.6268 1.73626 0.334143 -33.1688 1.5171 0.90834 -13.1562 1.5171 0.908336 99.0696 2.2575 -96.5432 68.6317 21.1916 -2.38019 -42.5013 -15.0557 -95.2556 -24.579 1.93591 -30.6706 -83.8523 -16.5771 82.3524 -37.6381 -11.9218 -77.8874 52.0873 2.46614 -91.5485 6.19371 -1.55846 -23.5985 47.7183 6.12006 5.79619 6.68483 1.96868 -6.41121 
-285.841 94.3393 -264.201 -111.768 50.0477 -72.6319 -168.605 -2.54999 91.3602 -62.9988 16.6251 0.327695 77.982 17.0295 13.5377 20.0102 -4.66827 -0.245554 -175.525 19.841 90.8212 -23.9224 -38.0142 -6.89886 50.9436 3.94968 2.43768 16.4051 2.85179 5.91385 0.204509 12.5601 -89.6095 1.75028 0.558684 0.772487 -9.92075 0.592118 0.747129 -32.4544 0.300699 0.904676 -12.4418 0.300701 0.904663 97.562 -9.60883 -96.6828 61.3233 18.3649 2.76275 -35.9938 -10.4333 -95.5948 -20.188 1.87893 -32.3452 -81.1092 -5.15726 86.1899 -28.9687 -12.3668 -68.5151 52.6837 0.978642 -92.1848 5.7456 -1.41941 -22.9418 49.5595 2.54685 -7.17795 -3.67504 6.47711 -0.582807 
-280.42 96.4484 -258.064 -107.934 46.8883 -72.1984 -170.329 1.23857 94.1396 -55.6611 9.5551 1.51597 70.8049 7.57193 4.28045 23.9594 -2.67605 0.314873 -175.26 20.5128 92.329 -27.8238 -34.5124 -8.01755 57.6444 0.346895 -0.351606 9.34597 4.63068 6.99861 0.0751769 11.6154 -89.9784 3.64313 0.158792 0.0423681 -8.02782 0.160492 0.0353464 -30.563 0.13871 0.0881369 -10.5504 0.138713 0.0881308 95.0097 -22.7319 -98.6191 48.5443 20.0526 4.44736 -36.5925 -10.4773 -98.5016 -27.2383 3.05555 -30.5297 -81.7121 -4.43863 84.3466 -14.8954 -4.32233 -54.0034 47.8388 -2.0173 -91.0623 4.83705 -1.21102 -22.0161 46.0956 0.136099 -14.7401 -8.90909 7.94612 4.41936 
-273.86 95.0175 -250.692 -106.896 45.4514 -72.6248 -171.265 5.26141 93.6712 -53.7974 12.8819 1.70814 73.2384 10.9591 6.65209 36.066 2.1698 10.4621 -177.01 24.9574 91.7631 -49.839 -18.1445 -6.4329 64.7015 -2.97766 -1.45723 16.2297 2.62353 7.00936 -0.162989 10.9837 -89.6628 4.90642 -0.187333 0.667575 -6.7647 -0.157761 0.675162 -29.2988 -0.379289 0.580421 -9.28616 -0.379298 0.580415 86.4448 -38.8481 -110.019 28.1288 26.3571 0.74771 -36.5516 -11.1793 -102.472 -31.8096 3.02091 -26.5906 -82.9726 -7.24893 81.3056 -12.8853 8.98507 -33.3136 42.9548 -4.86267 -88.2088 6.02887 -1.52561 -23.7248 43.7581 -2.7113 -24.4165 -12.1173 9.61713 9.82099 
-266.853 93.1048 -242.669 -106.879 44.861 -72.9857 -171.737 12.4454 92.7945 -56.488 10.1071 1.55933 77.2801 13.3462 3.89389 34.6037 2.07977 5.84459 -179.623 25.9018 90.4035 -72.0434 -10.3101 -4.84951 65.7226 -3.82251 -2.85777 16.8634 2.4987 6.79955 0.282965 10.2748 -89.9135 6.32361 0.601806 0.151582 -5.34718 0.607927 0.124933 -27.8833 0.528422 0.325447 -7.87066 0.528434 0.325453 89.5794 -44.3207 -102.919 17.7673 22.7489 -6.97024 -37.0007 -6.66341 -105.645 -30.6221 2.07214 -23.0342 -85.6395 -19.9137 78.9684 -14.8805 18.172 -19.4368 38.5577 2.66151 -79.4722 4.28297 -1.17269 -22.8425 40.3679 -3.50873 -21.5226 -12.8779 6.5445 9.65749 
-260.987 91.7371 -235.504 -106.651 45.4204 -76.1662 -172.594 18.8649 87.5564 -56.8749 8.94837 0.410389 77.4153 13.6524 5.21084 25.5061 -3.40204 6.04722 178.557 20.1507 86.8096 -84.4083 -6.10787 -4.92992 63.6487 -3.34567 -3.38477 11.8807 3.49575 8.31015 0.931309 9.47076 -89.8462 7.93194 1.92647 0.191467 -3.73758 1.93301 0.106449 -26.2831 1.77987 0.761815 -6.27046 1.77987 0.761806 95.2977 -37.5811 -94.5965 15.4538 21.9139 -10.9102 -37.6679 -2.06921 -109.542 -27.6394 1.69328 -23.6887 -87.8207 -31.7128 77.9802 -22.3078 16.8479 5.75129 43.8161 -4.51197 -84.8561 -1.63855 -0.217785 -27.4997 34.4777 -4.63935 -17.0633 -11.8949 2.46581 7.83927 
-255.608 92.6922 -229.116 -112.42 45.2366 -72.378 -173.509 18.0711 86.8639 -51.3405 8.18194 -0.0043901 71.7236 9.17498 5.73099 20.4145 -5.70528 3.56818 177.107 2.45247 85.9388 -80.4833 -15.3457 -6.35624 61.2457 -1.52167 -2.19622 15.8321 2.46229 8.11799 2.14531 8.85639 -90.3546 9.18213 4.11997 -0.997212 -2.48281 4.07209 -1.17785 -25.0705 4.22885 0.289337 -5.05788 4.22887 0.289344 98.4378 -19.5823 -91.2791 17.9251 14.1851 -4.9914 -37.2171 2.18535 -113.688 -24.7617 1.43672 -23.692 -87.8316 -41.2414 80.2598 -25.2985 24.27 29.037 37.6867 -15.1846 -92.9059 -2.40494 -0.0831498 -29.9436 21.0648 -6.47173 -9.41624 -8.6082 -3.34378 2.15731 
-249.416 95.7988 -222.067 -116.504 45.5325 -70.1887 -174.913 13.4935 87.2978 -33.99 10.1968 -0.683342 58.5077 -0.209542 3.34759 14.9721 -7.92115 0.882595 177.111 -12.2848 86.3444 -66.127 -24.0425 -8.58286 63.794 -2.2557 -0.849676 19.8524 1.07493 9.46923 2.65157 8.41963 -90.1848 10.0623 5.19984 -0.80444 -1.59857 5.1594 -1.03312 -24.217 5.20053 0.799893 -4.20436 5.20056 0.799904 96.593 -10.5107 -98.5198 22.4006 3.81882 -1.27625 -42.8497 7.39606 -109.566 -22.0785 0.640629 -22.4243 -83.6241 -38.9021 86.9774 -28.4519 19.0508 42.9824 40.1664 -22.3238 -101.698 -2.15285 -0.154834 -31.7373 5.90722 -7.0722 -14.0107 -4.23451 -4.33975 2.12904 
